<svg xmlns="http://www.w3.org/2000/svg" xmlns:xlink="http://www.w3.org/1999/xlink" width="32" height="32" viewBox="0 0 32 32"><defs><linearGradient id="a"><stop offset="0" stop-color="#000092"/><stop offset="1" stop-color="#ff00f3"/></linearGradient><linearGradient id="b" x1="1" x2="27" y1="16" y2="16" gradientUnits="userSpaceOnUse" xlink:href="#a"/></defs><path fill="url(#b)" d="M 1.5 1 A 0.50004997 0.50004997 0 0 0 1 1.5 L 1 26.5 A 0.50004997 0.50004997 0 0 0 1.5 27 L 17.685547 27 C 18.811956 29.36032 21.214887 31 24 31 C 27.860071 31 31 27.8601 31 24 C 31 20.83493 28.888201 18.155716 26 17.292969 L 26 5.5996094 A 0.50005 0.50005 0 0 0 26 5.3925781 L 26 1.5 A 0.50004997 0.50004997 0 0 0 25.5 1 L 1.5 1 z M 2 2 L 25 2 L 25 5 L 2 5 L 2 2 z M 19.5 3 A 0.5 0.5 0 0 0 19 3.5 A 0.5 0.5 0 0 0 19.5 4 A 0.5 0.5 0 0 0 20 3.5 A 0.5 0.5 0 0 0 19.5 3 z M 21.5 3 A 0.5 0.5 0 0 0 21 3.5 A 0.5 0.5 0 0 0 21.5 4 A 0.5 0.5 0 0 0 22 3.5 A 0.5 0.5 0 0 0 21.5 3 z M 23.5 3 A 0.5 0.5 0 0 0 23 3.5 A 0.5 0.5 0 0 0 23.5 4 A 0.5 0.5 0 0 0 24 3.5 A 0.5 0.5 0 0 0 23.5 3 z M 2 6 L 25 6 L 25 17.078125 C 24.672411 17.030933 24.340454 17 24 17 C 22.687036 17 21.461262 17.368667 20.410156 18 L 18 18 L 18 19 L 19.109375 19 C 17.810163 20.271526 17 22.042691 17 24 L 4 24 L 4 25 L 17.080078 25 C 17.129316 25.341406 17.19811 25.676255 17.294922 26 L 2 26 L 2 6 z M 5 7 L 5 8 L 23 8 L 23 7 L 5 7 z M 6 9 L 6 10 L 22 10 L 22 9 L 6 9 z M 4.5 11 A 0.50005 0.50005 0 0 0 4 11.5 L 4 15.5 A 0.50005 0.50005 0 0 0 4.5 16 L 8.5 16 A 0.50005 0.50005 0 0 0 9 15.5 L 9 11.5 A 0.50005 0.50005 0 0 0 8.5 11 L 4.5 11 z M 11.5 11 A 0.50004997 0.50004997 0 0 0 11 11.5 L 11 15.5 A 0.50004997 0.50004997 0 0 0 11.5 16 L 15.5 16 A 0.50004997 0.50004997 0 0 0 16 15.5 L 16 11.5 A 0.50004997 0.50004997 0 0 0 15.5 11 L 11.5 11 z M 18.5 11 A 0.50005 0.50005 0 0 0 18 11.5 L 18 15.5 A 0.50005 0.50005 0 0 0 18.5 16 L 22.5 16 A 0.50005 0.50005 0 0 0 23 15.5 L 23 11.5 A 0.50005 0.50005 0 0 0 22.5 11 L 18.5 11 z M 5 12 L 8 12 L 8 15 L 5 15 L 5 12 z M 12 12 L 15 12 L 15 15 L 12 15 L 12 12 z M 19 12 L 22 12 L 22 15 L 19 15 L 19 12 z M 4 18 L 4 19 L 9 19 L 9 18 L 4 18 z M 11 18 L 11 19 L 16 19 L 16 18 L 11 18 z M 24 18 C 27.319631 18 30 20.6804 30 24 C 30 27.3197 27.319631 30 24 30 C 20.680369 30 18 27.3197 18 24 C 18 20.6804 20.680369 18 24 18 z M 5 20 L 5 21 L 8 21 L 8 20 L 5 20 z M 12 20 L 12 21 L 15 21 L 15 20 L 12 20 z M 25.005859 20.494141 A 0.50005 0.50005 0 0 0 24.525391 20.84375 L 22.525391 26.84375 A 0.50005 0.50005 0 1 0 23.474609 27.158203 L 25.474609 21.158203 A 0.50005 0.50005 0 0 0 25.005859 20.494141 z M 21.5 21.626953 A 0.50005 0.50005 0 0 0 21.152344 21.767578 L 19.222656 23.580078 A 0.50005 0.50005 0 0 0 19.136719 24.339844 A 0.50020812 0.50020812 0 0 0 19.150391 24.353516 A 0.50005 0.50005 0 0 0 19.162109 24.365234 L 21.152344 26.234375 A 0.50017171 0.50017171 0 1 0 21.837891 25.505859 L 20.236328 24 L 21.837891 22.496094 A 0.50005 0.50005 0 0 0 21.5 21.626953 z M 26.46875 21.626953 A 0.50005 0.50005 0 0 0 26.146484 22.496094 L 27.748047 24 L 26.146484 25.505859 A 0.50017171 0.50017171 0 1 0 26.832031 26.234375 L 28.818359 24.367188 A 0.50020812 0.50020812 0 0 0 28.857422 24.328125 A 0.50005 0.50005 0 0 0 28.884766 24.292969 A 0.50020812 0.50020812 0 0 0 28.888672 24.289062 A 0.50005 0.50005 0 0 0 28.757812 23.576172 L 26.832031 21.767578 A 0.50005 0.50005 0 0 0 26.46875 21.626953 z M 5 22 L 5 23 L 8 23 L 8 22 L 5 22 z M 12 22 L 12 23 L 15 23 L 15 22 L 12 22 z " color="#000" font-family="sans-serif" font-weight="400" overflow="visible" style="line-height:normal;text-indent:0;text-align:start;text-decoration-line:none;text-decoration-style:solid;text-decoration-color:#000;text-transform:none;block-progression:tb;isolation:auto;mix-blend-mode:normal"/></svg>